# xmcd
# 
# Track frame offsets:
#     150
#     17025
#     27969
#     48143
#     66003
#     83655
#     98991
#     114042
#     122061
#     137361
#     153442
#     168211
#     185479
#     196091
#     219069
#     234161
#     251168
#     271177
# 
# Disc length: 3798
# 
# Revision: 0
# Processed by: cddbd v1.5.2PL0 Copyright (c) Steve Scherf et al.
# Submitted via: fre:ac v1.0.27
# 
DISCID=d70ed412
DTITLE=Gitty Fischer - My Favourite Songs
DYEAR=0
DGENRE=Blues
TTITLE0=Lonesome To The Bone
TTITLE1=Bring me some Water
TTITLE2=The Light
TTITLE3=Bobby Mc. Gee
TTITLE4=Youve got a Friend
TTITLE5=Can´t stay anymore
TTITLE6=Cadillac Groove
TTITLE7=Mercedes Benz
TTITLE8=Proud Mary
TTITLE9=Hell or Paradise
TTITLE10=Knockin on Heavens Door
TTITLE11=Make me whole again
TTITLE12=Heartlight
TTITLE13=The Rose
TTITLE14=Thanks to you
TTITLE15=Ready to go
TTITLE16=Blame it on you
TTITLE17=Dancing in the Delta
EXTD=
EXTT0=
EXTT1=
EXTT2=
EXTT3=
EXTT4=
EXTT5=
EXTT6=
EXTT7=
EXTT8=
EXTT9=
EXTT10=
EXTT11=
EXTT12=
EXTT13=
EXTT14=
EXTT15=
EXTT16=
EXTT17=
PLAYORDER=
